<svg xmlns="http://www.w3.org/2000/svg" viewBox="0 0 512 512"><defs><style>.cls-1{fill:none;}.cls-2{fill:#ffa95c;}</style></defs><g id="레이어_2" data-name="레이어 2"><g id="레이어_1-2" data-name="레이어 1"><rect class="cls-1" width="512" height="512"/><path class="cls-2" d="M476,397.52,383,236.39,290,75.26c-15.09-26.14-52.83-26.14-67.92,0L129,236.39,36,397.52c-15.1,26.15,3.77,58.83,34,58.83H442.06C472.25,456.35,491.12,423.67,476,397.52Zm-186.69,3.15A26.83,26.83,0,0,1,262.5,427.5h-13a26.83,26.83,0,0,1-26.83-26.83v-13a26.84,26.84,0,0,1,26.83-26.84h13a26.84,26.84,0,0,1,26.83,26.84Zm0-82.67a26.83,26.83,0,0,1-26.83,26.83h-13A26.83,26.83,0,0,1,222.67,318V162.67a26.84,26.84,0,0,1,26.83-26.84h13a26.84,26.84,0,0,1,26.83,26.84Z"/></g></g></svg>