<svg xmlns="http://www.w3.org/2000/svg" viewBox="0 0 437.33 437.33"><defs><style>.cls-1{fill:#ff9797;}</style></defs><g id="레이어_2" data-name="레이어 2"><g id="레이어_1-2" data-name="레이어 1"><path class="cls-1" d="M218.67,0C97.9,0,0,97.9,0,218.67S97.9,437.33,218.67,437.33s218.66-97.9,218.66-218.66S339.43,0,218.67,0ZM185.33,88.08a26.84,26.84,0,0,1,26.84-26.83h13A26.83,26.83,0,0,1,252,88.08V243.42a26.83,26.83,0,0,1-26.83,26.83h-13a26.84,26.84,0,0,1-26.84-26.83ZM252,349.25a26.83,26.83,0,0,1-26.83,26.83h-13a26.84,26.84,0,0,1-26.84-26.83v-28a26.84,26.84,0,0,1,26.84-26.83h13A26.83,26.83,0,0,1,252,321.25Z"/></g></g></svg>