<svg xmlns="http://www.w3.org/2000/svg" viewBox="0 0 437.33 437.33"><defs><style>.cls-1{fill:#a4ffaa;}</style></defs><g id="레이어_2" data-name="레이어 2"><g id="레이어_1-2" data-name="레이어 1"><path class="cls-1" d="M218.67,0C97.9,0,0,97.9,0,218.67S97.9,437.33,218.67,437.33s218.66-97.9,218.66-218.66S339.43,0,218.67,0Zm26.47,296.19q-.6,1.06-1.29,2.1a29.86,29.86,0,0,1-3.76,4.56h0l-10.5,10.5c-.69.69-1.42,1.34-2.16,2l-.44.35c-.6.48-1.2.92-1.82,1.35a30.57,30.57,0,0,1-4.66,2.61c-.52.23-1,.45-1.58.66a31.36,31.36,0,0,1-4.53,1.34,30.76,30.76,0,0,1-6.48.7,30.63,30.63,0,0,1-18.12-5.92c-.83-.61-1.63-1.27-2.41-2q-.58-.53-1.14-1.08l-10.5-10.5h0l-82-82a30.64,30.64,0,0,1,0-43.34L104.2,167a30.65,30.65,0,0,1,43.35,0l60.37,60.37.4.4.41.41,31.36,31.36A30.65,30.65,0,0,1,245.14,296.19Zm109.1-109.1-93.76,93.76a41.77,41.77,0,0,0-12.31-29.42L216.8,220.07,302,134.86a29.51,29.51,0,0,1,41.73,0l10.5,10.5a29.49,29.49,0,0,1,0,41.73Z"/></g></g></svg>